<svg width="128" height="150" viewBox="0 0 128 150" fill="none" xmlns="http://www.w3.org/2000/svg">
<path d="M107.103 149.808C100.884 149.808 95.7017 147.736 90.3465 140.138L50.0966 82.6333H33.3401V122.696C33.3401 137.029 35.7586 142.901 50.0966 142.901V147.218H0V142.901C14.1652 142.901 16.7565 138.065 16.7565 122.696V26.1651C16.7565 10.7961 14.1652 5.96091 0 5.96091V1.47107H52.3423C81.3637 1.47107 99.6749 16.8401 99.6749 40.8434C99.6749 59.3208 84.9914 73.8264 68.5805 79.8704L105.548 132.367C108.312 136.166 110.903 137.72 114.704 137.72C118.332 137.72 121.268 135.302 124.205 131.849L127.66 135.302C126.105 138.238 119.886 149.808 107.103 149.808ZM49.0601 9.75999H33.3401V74.3444L50.2693 77.2801C69.0987 77.2801 82.9184 58.4573 82.9184 40.8434C82.9184 20.8119 72.2081 9.75999 49.0601 9.75999Z" fill="#BF9A5B"/>
</svg>
