<svg width="454" height="49" viewBox="0 0 454 49" fill="none" xmlns="http://www.w3.org/2000/svg">
<path d="M33.4697 47.9399C31.5263 47.9399 29.9068 47.2906 28.2333 44.9098L15.6552 26.8918H10.4188V39.4449C10.4188 43.9359 11.1746 45.7755 15.6552 45.7755V47.1282H0V45.7755C4.42663 45.7755 5.23639 44.2605 5.23639 39.4449V9.19841C5.23639 4.38278 4.42663 2.86775 0 2.86775V1.46094H16.357C25.4262 1.46094 31.1484 6.27657 31.1484 13.7976C31.1484 19.5872 26.5598 24.1323 21.4314 26.0261L32.9838 42.4749C33.8476 43.6653 34.6573 44.1523 35.8449 44.1523C36.9786 44.1523 37.8963 43.3948 38.814 42.3126L39.8937 43.3948C39.4078 44.3146 37.4644 47.9399 33.4697 47.9399ZM15.3313 4.05813H10.4188V24.2946L15.7092 25.2144C21.5933 25.2144 25.912 19.3166 25.912 13.7976C25.912 7.52105 22.565 4.05813 15.3313 4.05813Z" fill="#BF9A5B"/>
<path d="M81.7308 48.535C67.6411 48.535 57.1144 37.6593 57.1144 24.2946C57.1144 10.984 67.6411 0.108215 81.7308 0.108215C95.8744 0.108215 106.401 10.984 106.401 24.2946C106.401 37.6593 95.8744 48.535 81.7308 48.535ZM78.5998 2.38076C69.2067 3.62525 61.7569 13.4729 63.7003 26.7835C65.6437 40.1483 75.5767 47.6152 84.8618 46.3707C94.3629 45.0721 101.705 35.1703 99.8152 21.8056C97.8718 8.49499 87.9929 1.08216 78.5998 2.38076Z" fill="#BF9A5B"/>
<path d="M142.57 48.0481C136.47 48.0481 133.501 46.1002 132.043 46.1002C131.018 46.1002 130.586 46.6413 130.208 47.5611H128.858V34.9539H130.208C131.234 41.9339 136.632 45.8838 141.49 45.8838C146.565 45.8838 150.236 43.2866 150.236 38.3086C150.236 33.5471 144.567 29.4349 140.465 26.4589C136.362 23.483 129.29 19.2625 129.29 12.012C129.29 4.70743 135.336 0.595215 140.627 0.595215C145.917 0.595215 148.238 2.43489 150.182 2.43489C151.153 2.43489 151.369 1.46094 151.531 1.08219H152.719V12.012H151.477C150.398 5.68138 145.917 2.86776 141.814 2.86776C137.712 2.86776 133.825 5.1944 133.825 9.68538C133.825 14.3387 139.601 18.2886 144.459 21.7515C148.67 24.7275 155.31 28.5691 155.31 36.0361C155.31 43.99 149.264 48.0481 142.57 48.0481Z" fill="#BF9A5B"/>
<path d="M207.782 47.1282H177.335V45.7755C181.762 45.7755 182.572 44.2605 182.572 39.4449V9.19841C182.572 4.38278 181.762 2.86775 177.335 2.86775V1.46094H207.674L208.592 9.41484H206.864C206 4.5451 204.381 4.27456 199.522 4.27456H187.808V22.4008H196.769C200.872 22.4008 202.006 21.3186 202.006 17.6393H203.355V29.7054H202.006C202.006 26.026 200.872 24.9439 196.769 24.9439H187.808V38.8497C187.808 43.0701 188.672 44.2605 191.587 44.2605H199.9C204.867 44.2605 206.648 43.99 208.43 39.012H210.103L207.782 47.1282Z" fill="#BF9A5B"/>
<path d="M250.861 47.1282H231.319V45.7755C235.745 45.7755 236.555 44.2605 236.555 39.4449V9.19841C236.555 4.38278 235.745 2.86775 231.319 2.86775V1.46094H250.429C263.439 1.46094 275.963 9.73949 275.963 24.4569C275.963 39.3367 263.763 47.1282 250.861 47.1282ZM248.755 3.94992H241.791V38.8497C241.791 41.7715 242.763 44.2605 246.434 44.2605H250.915C261.765 44.2605 269.755 37.6052 269.755 25.5391C269.755 11.3627 260.47 3.94992 248.755 3.94992Z" fill="#BF9A5B"/>
<path d="M328.381 47.1282H297.988V45.7755C302.415 45.7755 303.224 44.2605 303.224 39.4449V9.19841C303.224 4.38278 302.415 2.86775 297.988 2.86775V1.46094H328.327L329.19 9.41484H327.517C326.653 4.5451 325.034 4.27456 320.121 4.27456H308.407V22.4008H317.422C321.525 22.4008 322.604 21.3186 322.604 17.6393H324.008V29.7054H322.604C322.604 26.026 321.525 24.9439 317.422 24.9439H308.407V38.8497C308.407 43.0701 309.325 44.2605 312.186 44.2605H320.553C325.52 44.2605 327.301 43.99 329.029 39.012H330.756L328.381 47.1282Z" fill="#BF9A5B"/>
<path d="M385.603 47.1282V45.7755C390.03 45.7755 390.839 44.2605 390.839 39.4449L359.907 8.54911V39.4449C359.907 43.99 360.555 45.7755 365.143 45.7755V47.1282H351.971V45.7755C356.56 45.7755 357.208 43.99 357.208 39.4449V9.19841C357.208 4.70743 356.56 2.86775 351.971 2.86775V1.46094H360.393L390.839 31.8697V9.19841C390.839 4.70743 390.084 2.86775 385.603 2.86775V1.46094H398.775V2.86775C394.348 2.86775 393.539 4.38278 393.539 9.19841V39.4449C393.539 44.2605 394.348 45.7755 398.775 45.7755V47.1282H385.603Z" fill="#BF9A5B"/>
<path d="M451.625 47.1282H421.232V45.7755C425.605 45.7755 426.415 44.2605 426.415 39.4449V9.19841C426.415 4.38278 425.605 2.86775 421.232 2.86775V1.46094H451.517L452.434 9.41484H450.707C449.843 4.5451 448.224 4.27456 443.365 4.27456H431.651V22.4008H440.612C444.715 22.4008 445.849 21.3186 445.849 17.6393H447.198V29.7054H445.849C445.849 26.026 444.715 24.9439 440.612 24.9439H431.651V38.8497C431.651 43.0701 432.515 44.2605 435.43 44.2605H443.743C448.71 44.2605 450.491 43.99 452.273 39.012H453.946L451.625 47.1282Z" fill="#BF9A5B"/>
</svg>
